<?xml version="1.0" encoding="utf-8"?>
<!-- Generator: Adobe Illustrator 19.0.0, SVG Export Plug-In . SVG Version: 6.00 Build 0)  -->
<svg version="1.1" id="Layer_1" xmlns="http://www.w3.org/2000/svg" xmlns:xlink="http://www.w3.org/1999/xlink" x="0px" y="0px"
	 width="986px" height="419px" viewBox="469 -185 986 419" style="enable-background:new 469 -185 986 419;" xml:space="preserve">
<style type="text/css">
	.st0{fill:#03354E;}
	.st1{fill:#02C0A4;}
	.st2{fill:#FDDA4C;}
</style>
<title>Page 1</title>
<desc>Created with Sketch.</desc>
<path id="Fill-1" class="st0" d="M1405.1,83.5h-12.6c-7,0-12.6-6.1-12.6-13.6s5.7-13.6,12.6-13.6h12.6V83.5z M1329.2,102.5
	c0,7.6-5.7,13.8-12.6,13.8c-7,0-12.7-6.2-12.7-13.8v-40c0-7.6,5.7-13.8,12.7-13.8v0c7,0,12.6,6.2,12.6,13.8V102.5z M1215.3,97.6
	c-7,0-12.7-6.2-12.7-13.8c0-7.6,5.7-13.8,12.7-13.8v0c7,0,12.6,6.2,12.6,13.8C1228,91.4,1222.3,97.6,1215.3,97.6L1215.3,97.6z
	 M1076.2,120.2c0,7.6-5.7,13.8-12.6,13.8c-7,0-12.7-6.2-12.7-13.8V97.7c0-7.6,5.7-13.8,12.7-13.8v0c7,0,12.6,6.2,12.6,13.8V120.2z
	 M949.7,83.8c0,7.6-5.7,13.8-12.6,13.8c-7,0-12.6-6.2-12.6-13.8V71.9c0-7.6,5.7-13.8,12.7-13.8h0h0c0,0,0,0,0,0
	c7,0,12.6,6.2,12.6,13.8V83.8z M1443,19.6c-7,0-12.6-6.2-12.6-13.8v-88.4c0-7.6-5.7-13.8-12.6-13.8c-7,0-12.7,6.2-12.7,13.8v69.2
	c0,7.6-5.7,13.8-12.7,13.8c-7,0-12.6-6.2-12.6-13.8v-31.1c0-7.6-5.7-13.8-12.7-13.8c-7,0-12.6,6.2-12.6,13.8v76.1
	c0,7.6-5.7,13.8-12.6,13.8c-7,0-12.7-6.2-12.7-13.8v-56.1c0-7.6-5.7-13.8-12.6-13.8c-7,0-12.7,5.5-12.7,12.3
	c0,6.8-5.7,12.3-12.7,12.3s-12.6-6.2-12.6-13.8v-25.5c0-7.6-5.7-13.8-12.7-13.8c-7,0-12.7,6.2-12.7,13.8v69.6
	c0,7.6-5.7,13.8-12.6,13.8S1228,24,1228,16.4V-43c0-7.6-5.7-13.8-12.6-13.8c-7,0-12.6,6.2-12.6,13.8v42.8c0,7.6-5.7,13.8-12.7,13.8
	c-7,0-12.7-6.2-12.7-13.8v-52c0-7.6-5.7-13.8-12.6-13.8c-7,0-12.7,6.2-12.7,13.8v5.4c0,7.6-5.7,13.8-12.6,13.8
	c-7,0-12.6,4.3-12.6,9.6c0,5.3-5.7,9.6-12.6,9.6c-7,0-12.7,6.2-12.7,13.8v3.3c0,7.6-5.7,13.8-12.7,13.8c-7,0-12.6-6.2-12.6-13.8
	v-25.4c0-7.6-5.7-13.8-12.7-13.8c-7,0-12.7,6.2-12.7,13.8v10.2c0,7.6-5.7,13.8-12.7,13.8c-7,0-12.6-6.2-12.6-13.8v-43.9
	c0-7.6-5.7-13.8-12.6-13.8c-7,0-12.6,6.2-12.6,13.8v17.9c0,7.6-5.7,13.8-12.7,13.8c-7,0-12.7-6.2-12.7-13.8v-38.9
	c0-7.6-5.7-13.8-12.6-13.8c-7,0-12.6,6.2-12.6,13.8v29.9c0,7.6-5.7,13.8-12.7,13.8c-7,0-12.7-6.2-12.7-13.8v-8.3
	c0-7.6-5.7-13.8-12.6-13.8c-7,0-12.7,6.2-12.7,13.8v13.7c0,7.6-5.7,13.8-12.7,13.8c-7,0-12.7-6.2-12.7-13.8v-3.8
	c0-7.6-5.7-13.8-12.6-13.8c-7,0-12.6,6.2-12.6,13.8v17.8c0,7.6-5.7,13.8-12.7,13.8c-7,0-12.7-6.2-12.7-13.8v-50.7
	c0-7.6-5.7-13.8-12.6-13.8c-7,0-12.6,6-12.6,13.3c0,7.3-5.7,13.3-12.6,13.3c-7,0-12.7,6.2-12.7,13.8v41.1c0,7.6,5.7,13.8,12.7,13.8
	c7,0,12.6,6.2,12.6,13.8v22.5c0,7.6-5.7,13.8-12.6,13.8c-7,0-12.7-6.2-12.7-13.8V23.5c0-7.6-5.7-13.8-12.7-13.8
	c-7,0-12.6-6.2-12.6-13.8v-10.4c0-7.6-5.7-13.8-12.7-13.8c-7,0-12.7-5.2-12.7-11.5c0-6.3-5.7-11.5-12.7-11.5
	c-7,0-12.6,6.2-12.6,13.8v6.8c0,7.6-5.7,13.8-12.6,13.8c-7,0-12.7-6.2-12.7-13.8v-44.4c0-7.6-5.7-13.8-12.6-13.8
	s-12.7,6.2-12.7,13.8v88.4c0,7.6-5.7,13.8-12.6,13.8c-7,0-12.7-6.2-12.7-13.8v-65.8c0-7.6-5.7-13.8-12.6-13.8
	c-7,0-12.7,6.2-12.7,13.8v49.7c0,7.6-5.7,13.8-12.6,13.8c-7,0-12.6-6.2-12.6-13.8V-56c0-7.6-5.7-13.8-12.6-13.8
	c-7,0-12.7,6.2-12.7,13.8v7.9c0,7.6-5.7,13.8-12.7,13.8c-7,0-12.6-6.2-12.6-13.8v-15c0-7.6-5.7-13.8-12.7-13.8
	c-7,0-12.6,6.2-12.6,13.8V42.3c0,7.6-5.7,13.8-12.6,13.8c-6.9,0-12.6-6.2-12.6-13.7v191.4h986V10.1
	C1453.3,15.6,1448.6,19.6,1443,19.6L1443,19.6z"/>
<g id="Group-5" transform="translate(0.000000, 0.754000)">
	<path id="Fill-3" class="st1" d="M1455-75.4c-1.7-5.5-6.4-9.4-12-9.4l0,0c-7,0-12.7-6.2-12.7-13.8v-51.7c0-7.6-5.7-13.8-12.6-13.8
		s-12.6,6.2-12.6,13.8v42.2c0,7.6-5.7,13.8-12.7,13.8c-7,0-12.6-6.2-12.6-13.8v-7.7c0-7.6-5.7-13.8-12.7-13.8
		c-7,0-12.7,6.2-12.7,13.8v31.7c0,7.6-5.7,13.8-12.6,13.8c-7,0-12.7-6.2-12.7-13.8v-19.6c0-7.6-5.7-13.8-12.6-13.8
		c-7,0-12.7,5.9-12.7,13.2c0,7.2-5.7,13.2-12.7,13.2c-7,0-12.6-6.2-12.6-13.8v-34.7c0-7.6-5.7-13.8-12.6-13.8
		c-7,0-12.7,6.2-12.7,13.8v35.6c0,7.6-5.7,13.8-12.6,13.8c-7,0-12.7,2.7-12.7,5.9c0,3.3-5.7,5.9-12.6,5.9c-7,0-12.7-6.2-12.7-13.8
		v-18.6c0-7.6-5.7-13.8-12.7-13.8c-7,0-12.7-6.2-12.7-13.8v-11.7c0-7.6-5.7-13.8-12.6-13.8c-7,0-12.7,6.2-12.7,13.8v22.1
		c0,7.6-5.7,13.8-12.6,13.8c-7,0-12.7,2.6-12.7,5.8c0,3.2-5.7,5.8-12.6,5.8c-7,0-12.7,4.9-12.7,10.9s-5.7,10.9-12.7,10.9
		c-7,0-12.7-6.2-12.7-13.8v-33.9c0-7.6-5.7-13.8-12.6-13.8c-7,0-12.7,6.2-12.7,13.8v21.7c0,7.6-5.7,13.8-12.7,13.8
		c-7,0-12.7-6.2-12.7-13.8v-33.6c0-7.6-5.7-13.8-12.6-13.8c-7,0-12.6,6.2-12.6,13.8v20c0,7.6-5.7,13.8-12.7,13.8
		c-7,0-12.7-6.2-12.7-13.8v-51.1c0-7.6-5.7-13.8-12.6-13.8h0c-7,0-12.6,6.2-12.6,13.8v42.5c0,7.6-5.7,13.8-12.6,13.8
		c-7,0-12.7-6.2-12.7-13.8v-17.2c0-7.6-5.7-13.8-12.6-13.8c-7,0-12.6,4.7-12.6,10.4c0,5.7-5.7,10.4-12.7,10.4
		c-7,0-12.7,6.2-12.7,13.8v18.6c0,7.6-5.7,13.8-12.6,13.8c-7,0-12.7-6.2-12.7-13.8v-13.6c0-7.6-5.7-13.8-12.6-13.8
		c-7,0-12.7,2.2-12.7,4.9c0,2.7-5.7,4.9-12.6,4.9c-7,0-12.7-6.2-12.7-13.8v-0.6c0-7.6-5.7-13.8-12.6-13.8c-7,0-12.6,6.2-12.6,13.8
		v36.8c0,7.6-5.7,13.8-12.7,13.8c-7,0-12.7-6.2-12.7-13.8v-7c0-7.6-5.7-13.8-12.7-13.8c-7,0-12.6-6.2-12.6-13.8v-13.5
		c0-7.6-5.7-13.8-12.6-13.8c-7,0-12.6,6.2-12.6,13.8v37.5c0,7.6-5.7,13.8-12.7,13.8c-7,0-12.6-6.2-12.6-13.8v-21
		c0-7.6-5.7-13.8-12.7-13.8c-7,0-12.7,6.2-12.7,13.8v42.2c0,7.6-5.7,13.8-12.6,13.8c-7,0-12.7-6.2-12.7-13.8v-47.6
		c0-7.6-5.7-13.8-12.7-13.8c-7,0-12.6,6.2-12.6,13.8c0,7.6-5.7,13.8-12.7,13.8c-7,0-12.6-6.2-12.6-13.8v-10.7
		c0-7.6-5.7-13.8-12.7-13.8c-7,0-12.7,6.2-12.7,13.8v21c0,7.6-5.7,13.8-12.6,13.8c-7,0-12.6-3.9-12.6-8.7c0-4.8-5.7-8.7-12.6-8.7
		s-12.6,6.2-12.6,13.8v44.5c0,7.6-5.7,13.8-12.6,13.8c-6.9,0-12.6-6.2-12.6-13.7c0,0,0-0.1,0-0.1V41.5c0,0,0,0.1,0,0.1
		c0,7.6,5.7,13.7,12.6,13.7c7,0,12.7-6.2,12.7-13.8V-63.9c0-7.6,5.7-13.8,12.6-13.8c7,0,12.6,6.2,12.6,13.8v15
		c0,7.6,5.7,13.8,12.7,13.8c7,0,12.7-6.2,12.7-13.8v-7.9c0-7.6,5.7-13.8,12.6-13.8c7,0,12.7,6.2,12.7,13.8v53.1
		c0,7.6,5.7,13.8,12.6,13.8c7,0,12.7-6.2,12.7-13.8v-49.7c0-7.6,5.7-13.8,12.7-13.8c7,0,12.7,6.2,12.7,13.8v65.8
		c0,7.6,5.7,13.8,12.6,13.8c7,0,12.6-6.2,12.6-13.8v-88.4c0-7.6,5.7-13.8,12.6-13.8c7,0,12.7,6.2,12.7,13.8v44.4
		c0,7.6,5.7,13.8,12.7,13.8c7,0,12.6-6.2,12.6-13.8v-6.8c0-7.6,5.7-13.8,12.7-13.8c7,0,12.7,5.2,12.7,11.5c0,6.3,5.7,11.5,12.7,11.5
		c7,0,12.6,6.2,12.6,13.8v10.4c0,7.6,5.7,13.8,12.6,13.8c7,0,12.7,6.2,12.7,13.8v16.1c0,7.6,5.7,13.8,12.6,13.8
		c7,0,12.6-6.2,12.6-13.8V16.4c0-7.6-5.7-13.8-12.6-13.8c-7,0-12.6-6.2-12.6-13.8v-41.1c0-7.6,5.7-13.8,12.6-13.8
		c7,0,12.6-6,12.6-13.3s5.7-13.3,12.7-13.3c7,0,12.6,6.2,12.6,13.8v50.7c0,7.6,5.7,13.8,12.7,13.8c7,0,12.6-6.2,12.6-13.8v-17.8
		c0-7.6,5.7-13.8,12.6-13.8c7,0,12.7,6.2,12.7,13.8v3.8c0,7.6,5.7,13.8,12.7,13.8c7,0,12.7-6.2,12.7-13.8V-56
		c0-7.6,5.7-13.8,12.6-13.8s12.6,6.2,12.6,13.8v8.3c0,7.6,5.7,13.8,12.7,13.8c7,0,12.7-6.2,12.7-13.8v-29.9
		c0-7.6,5.7-13.8,12.6-13.8c7,0,12.7,6.2,12.7,13.8v38.9c0,7.6,5.7,13.8,12.7,13.8c7,0,12.6-6.2,12.6-13.8v-17.9
		c0-7.6,5.7-13.8,12.7-13.8c7,0,12.6,6.2,12.6,13.8v43.9c0,7.6,5.7,13.8,12.7,13.8c7,0,12.7-6.2,12.7-13.8v-10.2
		c0-7.6,5.7-13.8,12.7-13.8c7,0,12.7,6.2,12.7,13.8V2.5c0,7.6,5.7,13.8,12.6,13.8c7,0,12.7-6.2,12.7-13.8v-3.3
		c0-7.6,5.7-13.8,12.7-13.8c7,0,12.6-4.3,12.6-9.6c0-5.3,5.7-9.6,12.7-9.6c7,0,12.6-6.2,12.6-13.8V-53c0-7.6,5.7-13.8,12.6-13.8
		c7,0,12.7,6.2,12.7,13.8v52c0,7.6,5.7,13.8,12.7,13.8c7,0,12.6-6.2,12.6-13.8v-42.8c0-7.6,5.7-13.8,12.7-13.8
		c7,0,12.6,6.2,12.6,13.8v59.4c0,7.6,5.7,13.8,12.6,13.8s12.6-6.2,12.6-13.8V-54c0-7.6,5.7-13.8,12.7-13.8c7,0,12.7,6.2,12.7,13.8
		v25.5c0,7.6,5.7,13.8,12.6,13.8c7,0,12.7-5.5,12.7-12.3c0-6.8,5.7-12.3,12.6-12.3c7,0,12.7,6.2,12.7,13.8v56.1
		c0,7.6,5.7,13.8,12.6,13.8c7,0,12.6-6.2,12.6-13.8v-76.1c0-7.6,5.7-13.8,12.7-13.8c7,0,12.7,6.2,12.7,13.8v31.1
		c0,7.6,5.7,13.8,12.6,13.8c7,0,12.7-6.2,12.7-13.8v-69.2c0-7.6,5.7-13.8,12.6-13.8c7,0,12.7,6.2,12.7,13.8V5
		c0,7.6,5.7,13.8,12.6,13.8c5.6,0,10.3-4,12-9.4c0,0,0,0,0,0L1455-75.4C1455-75.4,1455-75.4,1455-75.4"/>
</g>
<path id="Fill-6" class="st2" d="M937,58.1C937,58.1,937,58.1,937,58.1L937,58.1L937,58.1z"/>
</svg>
