<?xml version="1.0" encoding="UTF-8"?>
<svg width="14px" height="14px" viewBox="0 0 14 14" version="1.1" xmlns="http://www.w3.org/2000/svg" xmlns:xlink="http://www.w3.org/1999/xlink">
    <!-- Generator: Sketch 44.1 (41455) - http://www.bohemiancoding.com/sketch -->
    <title>Shape</title>
    <desc>Created with Sketch.</desc>
    <defs></defs>
    <g id="Page-1" stroke="none" stroke-width="1" fill="none" fill-rule="evenodd">
        <g id="icon-plus2" fill="#FFFFFF">
            <path d="M7.58333333,6.41666667 L7.58333333,0.583333333 C7.58333333,0.261167229 7.3221661,1.97269844e-17 7,0 C6.6778339,-1.97269844e-17 6.41666667,0.261167229 6.41666667,0.583333333 L6.41666667,6.41666667 L0.583333333,6.41666667 C0.261167229,6.41666667 3.94539688e-17,6.6778339 0,7 C-3.94539688e-17,7.3221661 0.261167229,7.58333333 0.583333333,7.58333333 L6.41666667,7.58333333 L6.41666667,13.4166667 C6.41666667,13.7388328 6.6778339,14 7,14 C7.3221661,14 7.58333333,13.7388328 7.58333333,13.4166667 L7.58333333,7.58333333 L13.4166667,7.58333333 C13.7388328,7.58333333 14,7.3221661 14,7 C14,6.6778339 13.7388328,6.41666667 13.4166667,6.41666667 L7.58333333,6.41666667 Z" id="Shape"></path>
        </g>
    </g>
</svg>