<?xml version="1.0" encoding="UTF-8"?>
<svg width="986px" height="419px" viewBox="0 0 986 419" version="1.1" xmlns="http://www.w3.org/2000/svg" xmlns:xlink="http://www.w3.org/1999/xlink">
    <!-- Generator: Sketch 44.1 (41455) - http://www.bohemiancoding.com/sketch -->
    <title>Page 1</title>
    <desc>Created with Sketch.</desc>
    <defs></defs>
    <g id="Page-1" stroke="none" stroke-width="1" fill="none" fill-rule="evenodd">
        <g transform="translate(0.000000, -1.000000)">
            <path d="M936.064,269.5039 L923.414,269.5039 C916.459,269.5039 910.767,263.3699 910.767,255.8699 C910.767,248.3699 916.459,242.2329 923.414,242.2329 L936.064,242.2329 L936.064,269.5039 Z M860.167,288.4689 C860.167,296.0749 854.475,302.3029 847.517,302.3029 C840.559,302.3029 834.867,296.0769 834.867,288.4709 L834.867,248.4259 C834.867,240.8199 840.559,234.5959 847.517,234.5959 L847.517,234.5949 C854.475,234.5949 860.167,240.8189 860.167,248.4229 L860.167,288.4689 Z M746.322,283.6479 C739.364,283.6479 733.672,277.4279 733.672,269.8259 C733.672,262.2259 739.364,256.0029 746.322,256.0029 L746.322,256.0039 C753.279,256.0039 758.969,262.2259 758.969,269.8259 C758.969,277.4279 753.28,283.6479 746.322,283.6479 L746.322,283.6479 Z M607.179,306.2009 C607.179,313.8059 601.486,320.0309 594.529,320.0309 C587.569,320.0309 581.879,313.8059 581.879,306.2009 L581.879,283.6559 C581.879,276.0509 587.569,269.8259 594.529,269.8259 L594.529,269.8249 C601.486,269.8249 607.179,276.0509 607.179,283.6549 L607.179,306.2009 Z M480.679,269.8179 C480.679,277.4259 474.989,283.6479 468.029,283.6479 C461.072,283.6479 455.379,277.4259 455.379,269.8199 L455.379,257.9199 C455.379,250.3149 461.073,244.0909 468.03,244.0899 C468.03,244.0899 468.029,244.0899 468.029,244.0899 L468.032,244.0899 C468.031,244.0899 468.031,244.0899 468.03,244.0899 C474.99,244.0909 480.679,250.3149 480.679,257.9179 L480.679,269.8179 Z M974.016,205.5679 C967.058,205.5679 961.368,199.3449 961.368,191.7379 L961.368,103.3349 C961.368,95.7299 955.675,89.5049 948.718,89.5049 C941.76,89.5049 936.068,95.7299 936.068,103.3349 L936.068,172.5049 C936.068,180.1109 930.375,186.3349 923.418,186.3349 C916.46,186.3349 910.77,180.1109 910.77,172.5069 L910.77,141.4069 C910.77,133.7989 905.075,127.5769 898.117,127.5769 C891.16,127.5769 885.467,133.7989 885.467,141.4069 L885.467,217.4769 C885.467,225.0839 879.775,231.3119 872.82,231.3119 C865.86,231.3119 860.17,225.0859 860.17,217.4789 L860.17,161.3869 C860.17,153.7809 854.477,147.5569 847.52,147.5569 C840.562,147.5569 834.87,153.0799 834.87,159.8299 C834.87,166.5809 829.177,172.1029 822.22,172.1029 C815.263,172.1029 809.573,165.8789 809.573,158.2729 L809.573,132.7929 C809.573,125.1879 803.881,118.9629 796.921,118.9629 C789.964,118.9629 784.271,125.1879 784.271,132.7929 L784.271,202.4089 C784.271,210.0129 778.58,216.2389 771.623,216.2389 C764.666,216.2389 758.973,210.0129 758.973,202.4069 L758.973,142.9669 C758.973,135.3609 753.283,129.1389 746.326,129.1389 C739.368,129.1389 733.676,135.3609 733.676,142.9669 L733.676,185.7809 C733.676,193.3879 727.983,199.6109 721.026,199.6109 C714.068,199.6109 708.376,193.3879 708.376,185.7809 L708.376,133.7849 C708.376,126.1779 702.686,119.9549 695.726,119.9549 C688.77,119.9549 683.076,126.1779 683.076,133.7849 L683.076,139.1349 C683.076,146.7399 677.388,152.9629 670.428,152.9629 C663.471,152.9629 657.778,157.2709 657.778,162.5329 C657.778,167.7979 652.087,172.1029 645.131,172.1029 C638.171,172.1029 632.479,178.3269 632.479,185.9329 L632.479,189.2589 C632.479,196.8659 626.789,203.0889 619.829,203.0889 C612.871,203.0889 607.181,196.8659 607.181,189.2589 L607.181,163.8449 C607.181,156.2389 601.488,150.0149 594.531,150.0149 C587.575,150.0149 581.881,156.2389 581.881,163.8429 L581.881,174.0709 C581.881,181.6759 576.191,187.9009 569.231,187.9009 C562.275,187.9009 556.581,181.6759 556.581,174.0709 L556.581,130.1829 C556.581,122.5759 550.89,116.3529 543.933,116.3529 C536.976,116.3529 531.283,122.5759 531.283,130.1829 L531.283,148.1289 C531.283,155.7339 525.59,161.9589 518.633,161.9589 C511.674,161.9589 505.981,155.7339 505.981,148.1289 L505.981,109.1969 C505.981,101.5899 500.291,95.3669 493.331,95.3669 C486.375,95.3669 480.683,101.5899 480.683,109.1969 L480.683,139.1369 C480.683,146.7419 474.99,152.9669 468.033,152.9669 C461.075,152.9669 455.38,146.7419 455.38,139.1369 L455.38,130.7929 C455.38,123.1859 449.689,116.9629 442.733,116.9629 C435.777,116.9629 430.083,123.1859 430.083,130.7929 L430.083,144.4549 C430.083,152.0609 424.393,158.2849 417.433,158.2849 C410.477,158.2849 404.783,152.0609 404.783,144.4549 L404.783,140.6729 C404.783,133.0649 399.093,126.8429 392.133,126.8429 C385.177,126.8429 379.483,133.0649 379.483,140.6729 L379.483,158.4469 C379.483,166.0519 373.793,172.2739 366.833,172.2739 C359.878,172.2739 354.183,166.0499 354.183,158.4459 L354.183,107.7059 C354.183,100.1009 348.494,93.8779 341.538,93.8779 C334.58,93.8779 328.888,99.8749 328.888,107.2049 C328.888,114.5349 323.195,120.5329 316.238,120.5329 C309.28,120.5329 303.588,126.7559 303.588,134.3629 L303.588,175.4629 C303.588,183.0689 309.28,189.2929 316.238,189.2929 C323.195,189.2929 328.888,195.5169 328.888,203.1229 L328.888,225.5759 C328.888,233.1809 323.195,239.4059 316.238,239.4059 C309.28,239.4059 303.588,233.1809 303.588,225.5759 L303.588,209.4929 C303.588,201.8869 297.895,195.6629 290.938,195.6629 C283.98,195.6629 278.29,189.4399 278.29,181.8329 L278.29,171.4699 C278.29,163.8629 272.595,157.6399 265.64,157.6399 C258.682,157.6399 252.99,152.4749 252.99,146.1649 C252.99,139.8539 247.295,134.6919 240.34,134.6919 C233.384,134.6919 227.69,140.9149 227.69,148.5219 L227.69,155.2879 C227.69,162.8939 221.999,169.1179 215.042,169.1179 C208.085,169.1179 202.392,162.8939 202.392,155.2879 L202.392,110.8779 C202.392,103.2719 196.699,97.0479 189.742,97.0479 C182.785,97.0479 177.092,103.2719 177.092,110.8759 L177.092,199.2459 C177.092,206.8529 171.399,213.0759 164.445,213.0759 C157.487,213.0759 151.795,206.8529 151.795,199.2459 L151.795,133.4329 C151.795,125.8289 146.102,119.6029 139.145,119.6029 C132.187,119.6029 126.493,125.8289 126.493,133.4329 L126.493,183.1139 C126.493,190.7219 120.8,196.9439 113.843,196.9439 C106.886,196.9439 101.196,190.7219 101.196,183.1139 L101.196,129.9869 C101.196,122.3819 95.502,116.1569 88.546,116.1569 C81.586,116.1569 75.896,122.3819 75.896,129.9869 L75.896,137.9049 C75.896,145.5109 70.206,151.7349 63.246,151.7349 C56.29,151.7349 50.596,145.5109 50.596,137.9049 L50.596,122.8989 C50.596,115.2919 44.904,109.0689 37.946,109.0689 C30.99,109.0689 25.3,115.2919 25.3,122.8989 L25.3,228.2629 C25.3,235.8689 19.606,242.0929 12.65,242.0929 C5.721,242.0929 0.049,235.9169 0.004,228.3519 L0.004,419.7539 L985.999,419.7539 L985.999,196.1209 C984.313,201.5939 979.573,205.5679 974.016,205.5679 L974.016,205.5679 Z" id="Fill-1" fill="#016363"></path>
            <g id="Group-5" transform="translate(0.000000, 0.754000)" fill="#00C488">
                <path d="M985.9991,110.5917 C984.3121,105.1187 979.5731,101.1437 974.0161,101.1437 L974.0131,101.1457 C967.0551,101.1457 961.3631,94.9207 961.3631,87.3157 L961.3631,35.5987 C961.3631,27.9917 955.6731,21.7687 948.7151,21.7687 C941.7571,21.7687 936.0651,27.9917 936.0651,35.5987 L936.0651,77.8127 C936.0651,85.4177 930.3721,91.6427 923.4151,91.6427 C916.4571,91.6427 910.7671,85.4177 910.7671,77.8127 L910.7671,70.0907 C910.7671,62.4857 905.0721,56.2607 898.1151,56.2607 C891.1571,56.2607 885.4651,62.4857 885.4651,70.0907 L885.4651,101.7607 C885.4651,109.3687 879.7721,115.5907 872.8151,115.5907 C865.8571,115.5907 860.1651,109.3687 860.1651,101.7607 L860.1651,82.1207 C860.1651,74.5157 854.4751,68.2907 847.5151,68.2907 C840.5591,68.2907 834.8651,74.2107 834.8651,81.4467 C834.8651,88.6817 829.1751,94.6007 822.2151,94.6007 C815.2601,94.6007 809.5691,88.3767 809.5691,80.7707 L809.5691,46.1207 C809.5691,38.5127 803.8761,32.2887 796.9191,32.2887 C789.9591,32.2887 784.2671,38.5127 784.2671,46.1187 L784.2671,81.7247 C784.2671,89.3297 778.5771,95.5527 771.6201,95.5527 C764.6641,95.5527 758.9701,98.2177 758.9701,101.4727 C758.9701,104.7297 753.2801,107.3927 746.3231,107.3927 C739.3661,107.3927 733.6731,101.1697 733.6731,93.5647 L733.6731,74.9287 C733.6731,67.3207 727.9811,61.0987 721.0231,61.0987 C714.0661,61.0987 708.3731,54.8737 708.3731,47.2667 L708.3731,35.5987 C708.3731,27.9917 702.6831,21.7687 695.7251,21.7687 C688.7681,21.7687 683.0751,27.9917 683.0751,35.5987 L683.0751,57.7157 C683.0751,65.3227 677.3851,71.5457 670.4271,71.5457 C663.4691,71.5457 657.7771,74.1397 657.7771,77.3087 C657.7771,80.4787 652.0851,83.0717 645.1291,83.0717 C638.1681,83.0717 632.4781,87.9617 632.4781,93.9377 C632.4781,99.9137 626.7851,104.8077 619.8251,104.8077 C612.8671,104.8077 607.1751,98.5797 607.1751,90.9747 L607.1751,57.0717 C607.1751,49.4667 601.4851,43.2417 594.5271,43.2417 C587.5701,43.2417 581.8771,49.4667 581.8771,57.0717 L581.8771,78.7517 C581.8771,86.3587 576.1871,92.5817 569.2271,92.5817 C562.2701,92.5817 556.5751,86.3587 556.5751,78.7517 L556.5751,45.1867 C556.5751,37.5817 550.8851,31.3567 543.9251,31.3567 C536.9701,31.3567 531.2771,37.5817 531.2771,45.1867 L531.2771,65.1487 C531.2771,72.7547 525.5841,78.9787 518.6271,78.9787 C511.6691,78.9787 505.9751,72.7547 505.9751,65.1487 L505.9751,14.0757 C505.9751,6.4737 500.2921,0.2517 493.3401,0.2457 L493.3161,0.2457 C486.3661,0.2517 480.6761,6.4737 480.6761,14.0757 L480.6761,56.6237 C480.6761,64.2297 474.9861,70.4517 468.0261,70.4517 C461.0701,70.4517 455.3761,64.2297 455.3761,56.6237 L455.3761,39.4437 C455.3761,31.8367 449.6861,25.6137 442.7281,25.6137 C435.7721,25.6137 430.0781,30.2737 430.0781,35.9737 C430.0781,41.6707 424.3881,46.3337 417.4281,46.3337 C410.4721,46.3337 404.7781,52.5577 404.7781,60.1637 L404.7781,78.7517 C404.7781,86.3577 399.0881,92.5817 392.1281,92.5817 C385.1721,92.5817 379.4781,86.3577 379.4781,78.7517 L379.4781,65.1617 C379.4781,57.5537 373.7881,51.3317 366.8281,51.3317 C359.8731,51.3317 354.1781,53.5287 354.1781,56.2117 C354.1781,58.8977 348.4881,61.0967 341.5331,61.0967 C334.5751,61.0967 328.8831,54.8717 328.8831,47.2647 L328.8831,46.6787 C328.8831,39.0717 323.1901,32.8487 316.2331,32.8487 C309.2751,32.8487 303.5831,39.0717 303.5831,46.6787 L303.5831,83.4287 C303.5831,91.0347 297.8901,97.2587 290.9331,97.2587 C283.9751,97.2587 278.2831,91.0347 278.2831,83.4287 L278.2831,76.4087 C278.2831,68.8017 272.5911,62.5787 265.6331,62.5787 C258.6781,62.5787 252.9831,56.3547 252.9831,48.7487 L252.9831,35.2287 C252.9831,27.6207 247.2911,21.3987 240.3371,21.3987 C233.3821,21.3987 227.6871,27.6207 227.6871,35.2287 L227.6871,72.7137 C227.6871,80.3187 221.9971,86.5437 215.0371,86.5437 C208.0831,86.5437 202.3901,80.3187 202.3901,72.7137 L202.3901,51.7087 C202.3901,44.1027 196.6971,37.8787 189.7401,37.8787 C182.7831,37.8787 177.0901,44.1027 177.0901,51.7087 L177.0901,93.9127 C177.0901,101.5177 171.3971,107.7427 164.4431,107.7427 C157.4851,107.7427 151.7931,101.5177 151.7931,93.9127 L151.7931,46.3487 C151.7931,38.7427 146.1001,32.5187 139.1431,32.5187 C132.1851,32.5187 126.4931,38.7347 126.4931,46.3307 C126.4931,53.9307 120.7981,60.1447 113.8411,60.1447 C106.8851,60.1447 101.1931,53.9207 101.1931,46.3147 L101.1931,35.5987 C101.1931,27.9917 95.5001,21.7687 88.5431,21.7687 C81.5851,21.7687 75.8931,27.9917 75.8931,35.5987 L75.8931,56.6247 C75.8931,64.2307 70.2031,70.4527 63.2431,70.4527 C56.2881,70.4527 50.5951,66.5297 50.5951,61.7357 C50.5951,56.9417 44.9021,53.0197 37.9451,53.0197 C30.9881,53.0197 25.2971,59.2447 25.2971,66.8497 L25.2971,111.3837 C25.2971,118.9907 19.6031,125.2137 12.6471,125.2137 C5.7191,125.2137 0.0491,119.0367 0.0041,111.4717 C0.0041,111.4417 0.0001,111.4127 0.0001,111.3827 L0.0001,227.5087 C0.0001,227.5387 0.0041,227.5677 0.0041,227.5977 C0.0491,235.1627 5.7211,241.3387 12.6501,241.3387 C19.6061,241.3387 25.3001,235.1147 25.3001,227.5087 L25.3001,122.1447 C25.3001,114.5377 30.9901,108.3147 37.9461,108.3147 C44.9041,108.3147 50.5961,114.5377 50.5961,122.1447 L50.5961,137.1507 C50.5961,144.7567 56.2901,150.9807 63.2461,150.9807 C70.2061,150.9807 75.8961,144.7567 75.8961,137.1507 L75.8961,129.2327 C75.8961,121.6277 81.5861,115.4027 88.5461,115.4027 C95.5021,115.4027 101.1961,121.6277 101.1961,129.2327 L101.1961,182.3597 C101.1961,189.9677 106.8861,196.1897 113.8431,196.1897 C120.8001,196.1897 126.4931,189.9677 126.4931,182.3597 L126.4931,132.6787 C126.4931,125.0747 132.1871,118.8487 139.1451,118.8487 C146.1021,118.8487 151.7951,125.0747 151.7951,132.6787 L151.7951,198.4917 C151.7951,206.0987 157.4871,212.3217 164.4451,212.3217 C171.3991,212.3217 177.0921,206.0987 177.0921,198.4917 L177.0921,110.1217 C177.0921,102.5177 182.7851,96.2937 189.7421,96.2937 C196.6991,96.2937 202.3921,102.5177 202.3921,110.1237 L202.3921,154.5337 C202.3921,162.1397 208.0851,168.3637 215.0421,168.3637 C221.9991,168.3637 227.6901,162.1397 227.6901,154.5337 L227.6901,147.7677 C227.6901,140.1607 233.3841,133.9377 240.3401,133.9377 C247.2951,133.9377 252.9901,139.0997 252.9901,145.4107 C252.9901,151.7207 258.6821,156.8857 265.6401,156.8857 C272.5951,156.8857 278.2901,163.1087 278.2901,170.7157 L278.2901,181.0787 C278.2901,188.6857 283.9801,194.9087 290.9381,194.9087 C297.8951,194.9087 303.5881,201.1327 303.5881,208.7387 L303.5881,224.8217 C303.5881,232.4267 309.2801,238.6517 316.2381,238.6517 C323.1951,238.6517 328.8881,232.4267 328.8881,224.8217 L328.8881,202.3687 C328.8881,194.7627 323.1951,188.5387 316.2381,188.5387 C309.2801,188.5387 303.5881,182.3147 303.5881,174.7087 L303.5881,133.6087 C303.5881,126.0017 309.2801,119.7787 316.2381,119.7787 C323.1951,119.7787 328.8881,113.7807 328.8881,106.4507 C328.8881,99.1207 334.5801,93.1237 341.5381,93.1237 C348.4941,93.1237 354.1831,99.3467 354.1831,106.9517 L354.1831,157.6917 C354.1831,165.2957 359.8781,171.5197 366.8331,171.5197 C373.7931,171.5197 379.4831,165.2977 379.4831,157.6927 L379.4831,139.9187 C379.4831,132.3107 385.1771,126.0887 392.1331,126.0887 C399.0931,126.0887 404.7831,132.3107 404.7831,139.9187 L404.7831,143.7007 C404.7831,151.3067 410.4771,157.5307 417.4331,157.5307 C424.3931,157.5307 430.0831,151.3067 430.0831,143.7007 L430.0831,130.0387 C430.0831,122.4317 435.7771,116.2087 442.7331,116.2087 C449.6891,116.2087 455.3801,122.4317 455.3801,130.0387 L455.3801,138.3827 C455.3801,145.9877 461.0751,152.2127 468.0331,152.2127 C474.9901,152.2127 480.6831,145.9877 480.6831,138.3827 L480.6831,108.4427 C480.6831,100.8357 486.3751,94.6127 493.3311,94.6127 C500.2911,94.6127 505.9811,100.8357 505.9811,108.4427 L505.9811,147.3747 C505.9811,154.9797 511.6741,161.2047 518.6331,161.2047 C525.5901,161.2047 531.2831,154.9797 531.2831,147.3747 L531.2831,129.4287 C531.2831,121.8217 536.9761,115.5987 543.9331,115.5987 C550.8901,115.5987 556.5811,121.8217 556.5811,129.4287 L556.5811,173.3167 C556.5811,180.9217 562.2751,187.1467 569.2311,187.1467 C576.1911,187.1467 581.8811,180.9217 581.8811,173.3167 L581.8811,163.0887 C581.8811,155.4847 587.5751,149.2607 594.5311,149.2607 C601.4881,149.2607 607.1811,155.4847 607.1811,163.0907 L607.1811,188.5047 C607.1811,196.1117 612.8711,202.3347 619.8291,202.3347 C626.7891,202.3347 632.4791,196.1117 632.4791,188.5047 L632.4791,185.1787 C632.4791,177.5727 638.1711,171.3487 645.1311,171.3487 C652.0871,171.3487 657.7781,167.0437 657.7781,161.7787 C657.7781,156.5167 663.4711,152.2087 670.4281,152.2087 C677.3881,152.2087 683.0761,145.9857 683.0761,138.3807 L683.0761,133.0307 C683.0761,125.4237 688.7701,119.2007 695.7261,119.2007 C702.6861,119.2007 708.3761,125.4237 708.3761,133.0307 L708.3761,185.0267 C708.3761,192.6337 714.0681,198.8567 721.0261,198.8567 C727.9831,198.8567 733.6761,192.6337 733.6761,185.0267 L733.6761,142.2127 C733.6761,134.6067 739.3681,128.3847 746.3261,128.3847 C753.2831,128.3847 758.9731,134.6067 758.9731,142.2127 L758.9731,201.6527 C758.9731,209.2587 764.6661,215.4847 771.6231,215.4847 C778.5801,215.4847 784.2711,209.2587 784.2711,201.6547 L784.2711,132.0387 C784.2711,124.4337 789.9641,118.2087 796.9211,118.2087 C803.8811,118.2087 809.5731,124.4337 809.5731,132.0387 L809.5731,157.5187 C809.5731,165.1247 815.2631,171.3487 822.2201,171.3487 C829.1771,171.3487 834.8701,165.8267 834.8701,159.0757 C834.8701,152.3257 840.5621,146.8027 847.5201,146.8027 C854.4771,146.8027 860.1701,153.0267 860.1701,160.6327 L860.1701,216.7247 C860.1701,224.3317 865.8601,230.5577 872.8201,230.5577 C879.7751,230.5577 885.4671,224.3297 885.4671,216.7227 L885.4671,140.6527 C885.4671,133.0447 891.1601,126.8227 898.1171,126.8227 C905.0751,126.8227 910.7701,133.0447 910.7701,140.6527 L910.7701,171.7527 C910.7701,179.3567 916.4601,185.5807 923.4181,185.5807 C930.3751,185.5807 936.0681,179.3567 936.0681,171.7507 L936.0681,102.5807 C936.0681,94.9757 941.7601,88.7507 948.7181,88.7507 C955.6751,88.7507 961.3681,94.9757 961.3681,102.5807 L961.3681,190.9837 C961.3681,198.5907 967.0581,204.8137 974.0161,204.8137 C979.5731,204.8137 984.3121,200.8407 985.9991,195.3677 C986.0001,195.3637 986.0011,195.3607 986.0021,195.3577 L986.0021,110.6007 C986.0011,110.5977 986.0001,110.5947 985.9991,110.5917" id="Fill-3"></path>
            </g>
            <path d="M468.029,244.09 C468.029,244.09 468.03,244.09 468.031,244.09 C468.031,244.09 468.032,244.09 468.032,244.09 L468.029,244.09 Z" id="Fill-6" fill="#FDDA4C"></path>
        </g>
    </g>
</svg>